<svg width="510" height="157" viewBox="0 0 510 157" fill="none" xmlns="http://www.w3.org/2000/svg">
<path d="M103.681 156.268C103.681 115.402 103.681 74.5367 103.681 33.6712C111.975 33.6712 119.923 33.6712 128.217 33.6712C128.217 36.7617 128.217 39.5089 128.217 42.5998C128.909 42.2566 129.254 41.9129 129.6 41.9129C144.46 26.4597 168.649 29.5502 181.784 40.8827C191.112 49.1244 196.298 59.4268 197.333 71.7895C198.717 86.8995 194.914 100.292 183.858 111.281C169.688 125.361 147.225 126.735 132.364 115.402C131.327 114.372 129.945 113.341 128.563 112.311C128.563 127.421 128.563 141.845 128.563 156.611C120.269 156.268 111.975 156.268 103.681 156.268ZM172.451 77.284C172.451 64.9212 164.157 55.6495 152.406 54.6188C140.313 53.5887 130.636 61.1439 128.563 73.5066C126.489 85.1824 133.401 96.515 144.46 99.6054C159.321 103.04 172.451 92.7371 172.451 77.284Z" fill="white"/>
<path d="M87.4368 17.1664C83.2893 23.6912 78.7971 29.8725 74.6502 36.397C68.4298 30.9026 61.1722 27.4685 53.2241 26.4383C49.0771 26.0951 44.9302 26.4383 40.7833 27.1252C37.3273 27.8122 34.5624 30.5594 34.2171 34.3367C33.5256 38.4578 35.5996 41.205 38.7098 43.2653C42.1658 45.3256 45.9669 47.0427 49.7681 48.4165C55.6428 50.8205 61.8637 53.224 67.7383 55.628C69.4665 56.315 70.849 57.0019 72.5767 58.032C96.4221 70.3948 93.6572 98.8975 78.7971 111.603C71.1943 118.128 62.5547 121.219 52.8783 122.249C34.5629 123.966 17.9747 119.845 4.15191 106.796C-1.3775 101.645 -1.03228 101.645 3.11465 95.8066C6.57059 91.3423 9.68078 87.2217 13.482 82.4137C14.5187 83.4439 15.5559 84.474 16.2469 85.5047C24.5408 93.4031 34.2172 98.2106 45.967 97.8674C49.4224 97.8674 52.8788 96.8367 55.6433 95.4634C62.2094 92.0293 62.5547 84.474 56.6795 80.0097C54.2608 78.2932 51.4963 76.9193 48.7314 75.8892C42.1657 73.142 35.5996 71.0812 29.3792 68.334C26.269 66.9606 23.1583 65.2435 20.0481 63.1833C1.04119 50.4768 1.73267 23.6912 17.9746 10.9851C27.651 3.08669 39.0551 0.682845 51.1506 1.36967C64.2824 2.05645 75.6869 6.52079 85.7085 15.1059C86.0543 15.4494 86.7453 15.7928 87.091 16.1362C87.091 16.4796 87.091 16.4796 87.4368 17.1664Z" fill="white"/>
<path d="M402.613 120.538C394.664 120.538 387.059 120.538 379.455 120.538C379.455 117.791 379.455 115.044 379.455 112.296C378.765 112.64 378.421 112.983 378.076 112.983C362.178 128.093 334.878 125.346 320.364 108.175C303.776 88.6011 306.194 55.9777 325.545 40.1809C339.025 29.1915 362.522 26.1011 378.076 41.211C378.421 41.5542 378.765 41.5542 379.455 42.2412C379.455 39.1507 379.455 36.4035 379.455 33.3126C387.404 33.3126 395.008 33.3126 402.957 33.3126C402.613 62.8455 402.613 91.3483 402.613 120.538ZM334.183 76.9253C334.183 89.975 343.861 100.277 356.647 100.277C369.437 100.277 379.11 89.975 379.11 76.9253C379.11 63.8757 369.087 53.917 356.302 53.917C343.861 53.917 334.183 63.8757 334.183 76.9253Z" fill="white"/>
<path d="M509.733 120.536C507.315 120.536 505.586 120.536 503.513 120.536C496.258 120.536 488.654 120.536 481.394 120.536C480.36 120.536 478.976 119.849 478.286 118.819C469.992 108.174 461.699 97.5279 453.749 86.8823C453.06 86.1953 452.71 85.5084 452.021 84.8215L446.84 90.3164C446.84 90.3164 446.84 109.891 446.84 117.789C446.84 118.819 446.84 119.506 446.84 120.536C438.546 120.536 430.252 120.536 421.958 120.536C421.958 80.3572 421.958 40.1786 421.958 0C430.252 0 438.196 0 446.84 0C446.84 20.261 446.84 40.5223 446.84 61.4699C447.874 60.4398 448.568 59.7528 449.258 59.0659C457.552 51.168 466.19 42.9258 474.484 35.3711C475.523 34.341 476.902 33.6541 478.286 33.6541C487.614 33.6541 496.947 33.6541 506.276 33.9973C493.835 45.6731 481.394 57.0056 468.608 69.0251C482.433 86.1953 495.908 103.022 509.733 120.536Z" fill="white"/>
<path d="M233.975 85.5128C236.393 93.068 240.54 97.8755 247.45 100.279C253.671 102.34 259.891 102.34 266.456 100.966C273.026 99.5926 279.247 97.1891 285.122 93.4112C288.23 98.9056 291.338 104.057 294.45 109.551C294.795 109.895 293.761 111.268 293.066 111.612C285.812 116.42 277.863 119.51 269.569 121.228C259.201 123.288 249.179 122.944 239.156 119.854C221.879 114.359 212.546 101.997 209.783 84.8263C208.054 74.5239 209.438 64.2215 214.275 54.9497C223.263 38.4659 237.777 31.2544 255.744 31.5981C261.275 31.5981 267.151 32.6283 272.332 34.3453C287.885 39.8398 296.524 51.5156 298.597 67.6556C299.287 72.8068 298.597 77.9581 298.597 82.7656C298.597 84.8263 297.908 85.5128 295.834 85.5128C276.479 85.5128 257.128 85.5128 237.428 85.5128C236.393 85.5128 235.354 85.5128 233.975 85.5128ZM274.405 67.6556C273.716 58.7271 264.732 51.5156 254.71 51.5156C244.342 51.5156 234.665 59.0708 233.975 67.6556C247.45 67.6556 260.93 67.6556 274.405 67.6556Z" fill="white"/>
</svg>
